<svg width="83" height="111" viewBox="0 0 83 111" fill="none" xmlns="http://www.w3.org/2000/svg">
<path d="M44.3205 6.32632C46.133 4.71982 53.2735 0.744336 54.989 0.386836C58.0595 -0.253664 61.1365 -0.103684 64.989 0.873316C69.7945 2.09182 71.124 2.61483 71.9505 3.61083C72.3195 4.05533 73.9355 5.11882 75.541 5.97482C77.147 6.83082 78.589 7.93332 78.745 8.42532C78.901 8.91682 79.6945 10.1573 80.509 11.1818C82.0065 13.0668 82.596 16.4068 81.4305 16.4068C81.1055 16.4068 80.99 15.9578 81.154 15.3303C81.4025 14.3788 80.33 11.4068 79.7375 11.4068C79.6135 11.4068 79.155 11.9513 78.719 12.6168C77.9735 13.7548 78.003 13.9488 79.214 15.8668C79.922 16.9888 80.836 17.9068 81.2455 17.9068C81.6545 17.9068 81.989 18.1318 81.989 18.4068C81.989 18.6818 81.6675 18.9068 81.2745 18.9068C80.526 18.9068 78.989 17.6013 78.989 16.9653C78.989 16.7618 78.5085 16.0798 77.921 15.4493C76.9385 14.3943 76.9095 14.1778 77.558 12.7298C78.835 9.87982 78.273 8.61982 74.831 6.61532C73.1305 5.62482 71.289 4.40331 70.739 3.90081C68.2845 1.65931 56.3365 0.356323 53.239 1.99282C45.44 6.11282 43.4935 7.78334 40.965 12.5273C39.4585 15.3538 39.4315 15.5058 40.316 16.1758C41.4835 17.0603 41.7655 17.0573 44.4185 16.1333C45.6175 15.7158 47.08 15.5118 47.6685 15.6803C49.9175 16.3233 52.3105 17.6213 54.175 19.2088C55.7495 20.5493 56.4035 20.8053 57.675 20.5773C58.5355 20.4233 59.6265 19.8548 60.1 19.3138C60.5735 18.7733 61.1875 18.4708 61.4645 18.6418C62.3675 19.1998 63.896 17.9533 64.4805 16.1828C64.984 14.6568 64.92 14.2728 63.9405 12.9483C62.5705 11.0948 60.167 9.90683 57.7885 9.90683C56.2025 9.90683 55.989 10.0548 55.989 11.1568C55.989 11.8443 55.764 12.4068 55.489 12.4068C55.214 12.4068 54.989 11.8578 54.989 11.1863C54.989 8.58134 52.2815 9.22733 50.672 12.2163C49.738 13.9503 48.989 14.4123 48.989 13.2543C48.989 12.8958 49.78 11.7388 50.7465 10.6838L52.504 8.76483L56.433 9.03433C58.5935 9.18233 60.8385 9.55883 61.421 9.87033C62.24 10.3088 62.794 10.2748 63.8655 9.72082C65.3565 8.94982 65.342 8.94681 71.3695 11.3553C72.816 11.9338 74.4475 12.4068 74.9945 12.4068C75.9995 12.4068 76.344 13.1283 75.5675 13.6083C75.336 13.7513 72.9815 12.9813 70.336 11.8963C64.4405 9.47883 62.6255 9.76533 64.9685 12.7438C66.5995 14.8178 65.0775 19.4068 62.759 19.4068C62.1455 19.4068 61.2365 19.8568 60.739 20.4068C60.2415 20.9568 59.2715 21.4068 58.584 21.4068C57.3655 21.4068 57.357 21.4323 58.239 22.4068C58.7365 22.9568 59.4755 23.4068 59.8805 23.4068C61.3035 23.4068 65.767 26.3793 68.472 29.1288C69.975 30.6568 71.4785 31.9068 71.813 31.9068C72.148 31.9068 72.561 32.3468 72.732 32.8843C72.9025 33.4218 74.194 34.8978 75.602 36.1633C77.93 38.2563 78.119 38.5858 77.6915 39.8018C77.323 40.8498 77.4125 41.3304 78.105 42.0229C79.1175 43.0354 79.2755 45.4203 78.389 46.3069C77.661 47.0349 76.489 47.0968 76.489 46.4068C76.489 46.1318 76.8025 45.9068 77.1855 45.9068C78.1265 45.9068 78.447 44.8973 77.9395 43.5318C77.3925 42.0613 76.695 42.1114 75.311 43.7209C74.393 44.7879 73.998 44.9383 73.2095 44.5223C72.676 44.2403 71.2395 43.5953 70.0175 43.0888C68.583 42.4943 66.1525 40.5273 63.158 37.5373C60.607 34.9903 58.162 32.9068 57.7245 32.9068C57.287 32.9068 55.7115 31.7548 54.223 30.3473L51.5165 27.7878L48.8775 29.1493C45.287 31.0018 42.0675 34.4893 40.088 38.6698C39.18 40.5878 37.83 43.4383 37.088 45.0048C36.346 46.5714 35.466 47.8653 35.1325 47.8798C34.423 47.9114 39.933 36.6433 42.1535 33.5223C42.9885 32.3488 45.2055 30.3403 47.0805 29.0593C48.955 27.7783 50.489 26.4463 50.489 26.0998C50.489 25.7528 50.939 25.5028 51.489 25.5443C52.1625 25.5948 52.489 25.9778 52.489 26.7168C52.489 28.0153 56.6065 31.6663 58.65 32.1793C59.4245 32.3733 61.2035 33.8868 62.8125 35.7188C67.884 41.4958 73.0315 44.4283 74.989 42.6568C75.489 42.2043 76.1735 41.1683 76.5105 40.3543C77.1135 38.8993 77.0515 38.8023 72.852 34.6403C70.502 32.3118 68.1655 30.3888 67.6595 30.3673C67.153 30.3458 67.006 30.2193 67.332 30.0863C68.77 29.5008 60.943 23.9308 58.6555 23.9118C58.335 23.9088 57.9975 23.7368 57.9055 23.5293C57.5125 22.6388 51.0655 18.0078 49.2125 17.2848C47.326 16.5483 46.9985 16.5588 44.4625 17.4338C41.1305 18.5843 40.489 18.6203 40.489 17.6568C40.489 16.7173 39.633 16.7073 37.8725 17.6258C37.0485 18.0558 36.3885 18.1483 36.21 17.8598C36.047 17.5963 36.606 17.1398 37.4515 16.8448C38.46 16.4933 38.989 15.9733 38.989 15.3333C38.989 13.7213 42.313 8.10582 44.3205 6.32632Z" fill="black"/>
<path d="M58.4365 13.1243C58.1905 12.9723 57.989 12.5238 57.989 12.1273C57.989 11.3908 58.5845 11.1693 59.121 11.7058C59.572 12.1563 58.9515 13.4423 58.4365 13.1243Z" fill="black"/>
<path d="M27.2455 29.1568C29.2165 22.5253 29.5165 21.8793 31.5925 19.8033C33.449 17.9468 34.489 17.4353 34.489 18.3793C34.489 18.6393 33.9045 19.1458 33.1905 19.5043C31.5025 20.3523 29.9055 23.4643 27.981 29.6568C27.1265 32.4068 25.766 36.0248 24.958 37.6963C23.9275 39.8283 23.489 41.4898 23.489 43.2618C23.489 45.5283 23.6565 45.9139 25.114 47.0099C26.9195 48.3669 31.112 49.6988 31.9495 49.1813C32.2475 48.9973 32.489 49.1968 32.489 49.6273C32.489 51.1263 28.532 50.2713 24.8365 47.9738C23.0485 46.8623 22.8955 46.8438 22.296 47.6638C21.4965 48.7568 19.7685 54.0984 18.783 58.5229C17.9825 62.1149 16.461 65.8583 12.2235 74.6568C10.358 78.5308 9.47502 81.0438 9.23702 83.1568C9.05152 84.8068 8.48001 87.9393 7.96751 90.1173C7.45501 92.2958 7.14152 94.2488 7.27052 94.4578C7.39952 94.6668 7.29204 94.9693 7.03154 95.1303C6.07854 95.7193 5.97053 94.3718 6.73503 91.4223C7.16553 89.7608 7.74402 86.5468 8.02052 84.2793C8.49052 80.4278 10.144 75.7763 11.708 73.9068C12.053 73.4943 12.949 71.5818 13.699 69.6568C14.4495 67.7318 15.5005 65.4053 16.0355 64.4868C16.5705 63.5683 17.5655 60.4578 18.247 57.5743C18.9285 54.6908 20.1615 50.7923 20.9875 48.9103C21.8275 46.9963 22.489 44.6168 22.489 43.5093C22.489 41.5433 23.1325 39.4963 24.9575 35.6568C25.4805 34.5568 26.51 31.6318 27.2455 29.1568Z" fill="black"/>
<path d="M73.8535 30.2088C73.6875 30.3748 73.256 30.3928 72.8955 30.2483C72.4965 30.0888 72.615 29.9703 73.1975 29.9463C73.7245 29.9248 74.0195 30.0428 73.8535 30.2088Z" fill="black"/>
<path d="M33.2615 57.6803C33.9435 56.0483 33.94 55.6388 33.2215 52.6568C32.917 51.3938 32.969 51.2593 33.5495 51.8069C33.9795 52.2123 34.239 53.5339 34.239 55.3199C34.239 57.9019 34.043 58.4318 32.239 60.7283C31.139 62.1283 29.508 63.7558 28.614 64.3448C26.716 65.5958 26.628 66.0613 28.0085 67.5428C28.5695 68.1448 29.379 69.8793 29.808 71.3973C30.2375 72.9148 31.241 75.3348 32.0385 76.7743C32.9375 78.3968 33.489 80.1264 33.489 81.3249C33.489 83.4704 34.8675 86.3588 37.719 90.1888C39.8105 92.9988 40.8125 95.4743 41.2945 99.0233C41.725 102.197 42.443 102.725 44.5665 101.43C46.9025 100.006 48.99 100.054 48.9855 101.532C48.9815 102.961 47.8205 104.707 45.037 107.47C43.683 108.814 42.752 109.416 42.62 109.032C42.502 108.688 41.9675 108.407 41.4315 108.407C39.9745 108.407 39.712 107.016 40.9255 105.724C42.03 104.549 42.3125 103.166 41.5455 102.692C41.302 102.541 40.9535 101.572 40.7715 100.537C40.0545 96.4628 38.2995 92.1053 36.6185 90.2268C34.4605 87.8138 32.5005 83.6743 32.494 81.5153C32.491 80.6123 31.9165 78.7433 31.2165 77.3623C30.5165 75.9813 29.522 73.4948 29.006 71.8368C28.49 70.1788 27.6695 68.3828 27.1835 67.8453C26.3225 66.8938 26.2345 66.9968 23.8455 71.7624C22.496 74.4544 20.89 77.3318 20.2765 78.1568C18.3105 80.8013 17.489 82.9968 17.489 85.6088C17.489 88.6479 16.2895 95.2193 15.3055 97.5753C14.9185 98.5013 14.4445 100.191 14.252 101.33C14.0595 102.469 13.679 103.539 13.407 103.708C12.812 104.075 13.3735 99.6253 14.098 98.2303C14.8255 96.8298 16.489 88.0998 16.489 85.6833C16.489 82.8418 17.269 80.7653 19.571 77.4793C20.626 75.9733 21.489 74.5318 21.489 74.2763C21.489 74.0203 21.9235 73.2008 22.4545 72.4553C22.9855 71.7093 23.805 70.0998 24.275 68.8778C24.8345 67.4243 26.415 65.3923 28.849 62.9973C30.895 60.9848 32.8805 58.5923 33.2615 57.6803Z" fill="black"/>
<path d="M35.5315 60.3343C35.912 59.6273 36.1335 57.6088 36.086 55.2818C36.0395 53.0238 36.2115 51.4068 36.4975 51.4068C37.155 51.4068 37.126 58.6438 36.459 61.0448C35.9815 62.7643 36.1105 63.2993 37.9035 67.0448C39.5925 70.5723 40.86 74.3308 41.8465 78.7348C41.979 79.3278 43.387 81.0503 44.975 82.5623C47.696 85.1528 49.489 88.4434 49.489 90.8458C49.489 92.1333 48.665 90.8203 47.801 88.1568C47.197 86.2948 46.3505 85.1058 44.4825 83.4978C41.4795 80.9128 40.1985 78.5723 39.5365 74.4608C39.251 72.6898 38.301 70.0213 37.2875 68.1443C35.179 64.2408 34.6635 61.9468 35.5315 60.3343Z" fill="black"/>
<path d="M52.288 95.7748C51.8425 96.2198 51.084 95.3983 50.564 93.9078C50.2765 93.0823 50.198 92.4083 50.39 92.4098C50.856 92.4143 52.584 95.4783 52.288 95.7748Z" fill="black"/>
<path d="M3.98903 101.737C3.98903 100.632 4.25902 98.9808 4.58952 98.0673C4.91952 97.1538 5.39402 96.4068 5.64302 96.4068C5.89202 96.4068 5.95203 96.7828 5.77553 97.2418C5.59953 97.7013 5.22802 99.0898 4.95052 100.328C4.29652 103.246 5.00402 103.993 8.71352 104.3C11.459 104.528 11.489 104.548 11.489 106.141C11.489 107.074 11.121 108.047 10.614 108.454C9.48353 109.362 7.48903 110.477 7.48903 110.202C7.48903 110.085 7.35253 109.633 7.18553 109.198C6.95803 108.605 7.19904 108.407 8.15004 108.407C9.33954 108.407 10.989 107.282 10.989 106.471C10.989 105.631 9.68052 104.907 8.16252 104.907C7.26802 104.907 5.96303 104.646 5.26253 104.326C4.20553 103.845 3.98903 103.405 3.98903 101.737Z" fill="black"/>
<path d="M50.2315 100.316C50.06 100.144 50.2145 99.5323 50.5745 98.9553C51.332 97.7428 51.492 97.6683 51.4815 98.5318C51.4705 99.4363 50.5975 100.682 50.2315 100.316Z" fill="black"/>
<path d="M0.739029 107.662C1.28903 107.218 2.41403 106.538 3.23903 106.15C5.04303 105.303 5.82653 105.24 6.23903 105.907C6.40903 106.182 6.06304 106.407 5.47054 106.407C4.23654 106.407 1.48903 107.9 1.48903 108.571C1.48903 109.045 3.55353 108.817 5.23903 108.156C6.12953 107.808 6.15703 107.848 5.48903 108.522C4.38303 109.639 1.78452 109.985 0.675522 109.163C-0.236478 108.487 -0.234471 108.447 0.739029 107.662Z" fill="black"/>
</svg>
